<mxfile host="app.diagrams.net" agent="Mozilla/5.0 (X11; Ubuntu; Linux x86_64; rv:137.0) Gecko/20100101 Firefox/137.0" version="27.1.6">
  <diagram name="Page-1" id="W8epZQ21CmaLPUGNPq8Y">
    <mxGraphModel dx="1360" dy="1895" grid="1" gridSize="10" guides="1" tooltips="1" connect="1" arrows="1" fold="1" page="1" pageScale="1" pageWidth="850" pageHeight="1100" math="0" shadow="0">
      <root>
        <mxCell id="0" />
        <mxCell id="1" parent="0" />
        <mxCell id="s7vytsFGn_9YH380_VkC-72" value="Q" style="ellipse;whiteSpace=wrap;html=1;fontSize=16;fillColor=#f5f5f5;fontColor=#333333;strokeColor=#666666;" vertex="1" parent="1">
          <mxGeometry x="302.5" y="-111" width="60" height="60" as="geometry" />
        </mxCell>
        <mxCell id="s7vytsFGn_9YH380_VkC-73" value="a" style="ellipse;whiteSpace=wrap;html=1;fontSize=16;fillColor=#f8cecc;strokeColor=#b85450;" vertex="1" parent="1">
          <mxGeometry x="254.5" y="5" width="60" height="60" as="geometry" />
        </mxCell>
        <mxCell id="s7vytsFGn_9YH380_VkC-74" value="" style="edgeStyle=none;curved=1;rounded=0;orthogonalLoop=1;jettySize=auto;html=1;fontSize=16;startSize=8;endSize=8;endArrow=none;endFill=0;" edge="1" parent="1" source="s7vytsFGn_9YH380_VkC-72" target="s7vytsFGn_9YH380_VkC-73">
          <mxGeometry relative="1" as="geometry">
            <mxPoint x="556.5" y="-62" as="sourcePoint" />
            <mxPoint x="355.5" y="-13" as="targetPoint" />
          </mxGeometry>
        </mxCell>
        <mxCell id="s7vytsFGn_9YH380_VkC-75" value="D" style="ellipse;whiteSpace=wrap;html=1;fontSize=16;fillColor=#f5f5f5;fontColor=#333333;strokeColor=#666666;" vertex="1" parent="1">
          <mxGeometry x="391.5" y="-220" width="60" height="60" as="geometry" />
        </mxCell>
        <mxCell id="s7vytsFGn_9YH380_VkC-76" value="" style="edgeStyle=none;curved=1;rounded=0;orthogonalLoop=1;jettySize=auto;html=1;fontSize=16;startSize=8;endSize=8;endArrow=none;endFill=0;" edge="1" parent="1" source="s7vytsFGn_9YH380_VkC-75" target="s7vytsFGn_9YH380_VkC-72">
          <mxGeometry relative="1" as="geometry">
            <mxPoint x="406.5" y="-43" as="sourcePoint" />
            <mxPoint x="378.5" as="targetPoint" />
          </mxGeometry>
        </mxCell>
        <mxCell id="s7vytsFGn_9YH380_VkC-77" value="b" style="ellipse;whiteSpace=wrap;html=1;fontSize=16;fillColor=#f8cecc;strokeColor=#b85450;" vertex="1" parent="1">
          <mxGeometry x="341.5" y="5" width="60" height="60" as="geometry" />
        </mxCell>
        <mxCell id="s7vytsFGn_9YH380_VkC-78" value="" style="edgeStyle=none;curved=1;rounded=0;orthogonalLoop=1;jettySize=auto;html=1;fontSize=16;startSize=8;endSize=8;endArrow=none;endFill=0;" edge="1" parent="1" source="s7vytsFGn_9YH380_VkC-72" target="s7vytsFGn_9YH380_VkC-77">
          <mxGeometry relative="1" as="geometry">
            <mxPoint x="407.5" y="-42" as="sourcePoint" />
            <mxPoint x="380.5" y="1" as="targetPoint" />
          </mxGeometry>
        </mxCell>
        <mxCell id="s7vytsFGn_9YH380_VkC-79" value="T" style="ellipse;whiteSpace=wrap;html=1;fontSize=16;fillColor=#f5f5f5;fontColor=#333333;strokeColor=#666666;" vertex="1" parent="1">
          <mxGeometry x="476.5" y="-111" width="60" height="60" as="geometry" />
        </mxCell>
        <mxCell id="s7vytsFGn_9YH380_VkC-80" value="" style="edgeStyle=none;curved=1;rounded=0;orthogonalLoop=1;jettySize=auto;html=1;fontSize=16;startSize=8;endSize=8;endArrow=none;endFill=0;" edge="1" parent="1" source="s7vytsFGn_9YH380_VkC-75" target="s7vytsFGn_9YH380_VkC-79">
          <mxGeometry relative="1" as="geometry">
            <mxPoint x="408.5" y="-154" as="sourcePoint" />
            <mxPoint x="379.5" y="-99" as="targetPoint" />
          </mxGeometry>
        </mxCell>
        <mxCell id="s7vytsFGn_9YH380_VkC-87" value="c" style="ellipse;whiteSpace=wrap;html=1;fontSize=16;fillColor=#f8cecc;strokeColor=#b85450;" vertex="1" parent="1">
          <mxGeometry x="436.5" y="5" width="60" height="60" as="geometry" />
        </mxCell>
        <mxCell id="s7vytsFGn_9YH380_VkC-88" value="d" style="ellipse;whiteSpace=wrap;html=1;fontSize=16;fillColor=#f8cecc;strokeColor=#b85450;" vertex="1" parent="1">
          <mxGeometry x="524.5" y="5" width="60" height="60" as="geometry" />
        </mxCell>
        <mxCell id="s7vytsFGn_9YH380_VkC-89" value="" style="edgeStyle=none;curved=1;rounded=0;orthogonalLoop=1;jettySize=auto;html=1;fontSize=16;startSize=8;endSize=8;endArrow=none;endFill=0;" edge="1" parent="1" source="s7vytsFGn_9YH380_VkC-79" target="s7vytsFGn_9YH380_VkC-87">
          <mxGeometry relative="1" as="geometry">
            <mxPoint x="331.5" y="-43" as="sourcePoint" />
            <mxPoint x="305.5" y="17" as="targetPoint" />
          </mxGeometry>
        </mxCell>
        <mxCell id="s7vytsFGn_9YH380_VkC-90" value="" style="edgeStyle=none;curved=1;rounded=0;orthogonalLoop=1;jettySize=auto;html=1;fontSize=16;startSize=8;endSize=8;endArrow=none;endFill=0;" edge="1" parent="1" source="s7vytsFGn_9YH380_VkC-79" target="s7vytsFGn_9YH380_VkC-88">
          <mxGeometry relative="1" as="geometry">
            <mxPoint x="508.5" y="-42" as="sourcePoint" />
            <mxPoint x="490.5" y="16" as="targetPoint" />
          </mxGeometry>
        </mxCell>
        <mxCell id="s7vytsFGn_9YH380_VkC-117" value="" style="shape=table;startSize=0;container=1;collapsible=0;childLayout=tableLayout;fontSize=16;" vertex="1" parent="1">
          <mxGeometry x="116" y="130" width="619" height="180" as="geometry" />
        </mxCell>
        <mxCell id="s7vytsFGn_9YH380_VkC-118" value="" style="shape=tableRow;horizontal=0;startSize=0;swimlaneHead=0;swimlaneBody=0;strokeColor=inherit;top=0;left=0;bottom=0;right=0;collapsible=0;dropTarget=0;fillColor=none;points=[[0,0.5],[1,0.5]];portConstraint=eastwest;fontSize=16;" vertex="1" parent="s7vytsFGn_9YH380_VkC-117">
          <mxGeometry width="619" height="60" as="geometry" />
        </mxCell>
        <mxCell id="s7vytsFGn_9YH380_VkC-146" style="shape=partialRectangle;html=1;whiteSpace=wrap;connectable=0;strokeColor=#666666;overflow=hidden;fillColor=#f5f5f5;top=0;left=0;bottom=0;right=0;pointerEvents=1;fontSize=16;rowspan=1;colspan=2;fontColor=#333333;" vertex="1" parent="s7vytsFGn_9YH380_VkC-118">
          <mxGeometry width="138" height="60" as="geometry">
            <mxRectangle width="69" height="60" as="alternateBounds" />
          </mxGeometry>
        </mxCell>
        <mxCell id="s7vytsFGn_9YH380_VkC-142" style="shape=partialRectangle;html=1;whiteSpace=wrap;connectable=0;strokeColor=inherit;overflow=hidden;fillColor=none;top=0;left=0;bottom=0;right=0;pointerEvents=1;fontSize=16;" vertex="1" visible="0" parent="s7vytsFGn_9YH380_VkC-118">
          <mxGeometry x="69" width="69" height="60" as="geometry">
            <mxRectangle width="69" height="60" as="alternateBounds" />
          </mxGeometry>
        </mxCell>
        <mxCell id="s7vytsFGn_9YH380_VkC-119" value="0" style="shape=partialRectangle;html=1;whiteSpace=wrap;connectable=0;strokeColor=#666666;overflow=hidden;fillColor=#f5f5f5;top=0;left=0;bottom=0;right=0;pointerEvents=1;fontSize=16;fontColor=#333333;fontStyle=1" vertex="1" parent="s7vytsFGn_9YH380_VkC-118">
          <mxGeometry x="138" width="69" height="60" as="geometry">
            <mxRectangle width="69" height="60" as="alternateBounds" />
          </mxGeometry>
        </mxCell>
        <mxCell id="s7vytsFGn_9YH380_VkC-120" value="1" style="shape=partialRectangle;html=1;whiteSpace=wrap;connectable=0;strokeColor=#666666;overflow=hidden;fillColor=#f5f5f5;top=0;left=0;bottom=0;right=0;pointerEvents=1;fontSize=16;fontColor=#333333;fontStyle=1" vertex="1" parent="s7vytsFGn_9YH380_VkC-118">
          <mxGeometry x="207" width="68" height="60" as="geometry">
            <mxRectangle width="68" height="60" as="alternateBounds" />
          </mxGeometry>
        </mxCell>
        <mxCell id="s7vytsFGn_9YH380_VkC-121" value="2" style="shape=partialRectangle;html=1;whiteSpace=wrap;connectable=0;strokeColor=#666666;overflow=hidden;fillColor=#f5f5f5;top=0;left=0;bottom=0;right=0;pointerEvents=1;fontSize=16;fontColor=#333333;fontStyle=1" vertex="1" parent="s7vytsFGn_9YH380_VkC-118">
          <mxGeometry x="275" width="69" height="60" as="geometry">
            <mxRectangle width="69" height="60" as="alternateBounds" />
          </mxGeometry>
        </mxCell>
        <mxCell id="s7vytsFGn_9YH380_VkC-122" value="3" style="shape=partialRectangle;html=1;whiteSpace=wrap;connectable=0;strokeColor=#666666;overflow=hidden;fillColor=#f5f5f5;top=0;left=0;bottom=0;right=0;pointerEvents=1;fontSize=16;fontColor=#333333;fontStyle=1" vertex="1" parent="s7vytsFGn_9YH380_VkC-118">
          <mxGeometry x="344" width="69" height="60" as="geometry">
            <mxRectangle width="69" height="60" as="alternateBounds" />
          </mxGeometry>
        </mxCell>
        <mxCell id="s7vytsFGn_9YH380_VkC-123" value="4" style="shape=partialRectangle;html=1;whiteSpace=wrap;connectable=0;strokeColor=#666666;overflow=hidden;fillColor=#f5f5f5;top=0;left=0;bottom=0;right=0;pointerEvents=1;fontSize=16;fontColor=#333333;fontStyle=1" vertex="1" parent="s7vytsFGn_9YH380_VkC-118">
          <mxGeometry x="413" width="69" height="60" as="geometry">
            <mxRectangle width="69" height="60" as="alternateBounds" />
          </mxGeometry>
        </mxCell>
        <mxCell id="s7vytsFGn_9YH380_VkC-124" value="5" style="shape=partialRectangle;html=1;whiteSpace=wrap;connectable=0;strokeColor=#666666;overflow=hidden;fillColor=#f5f5f5;top=0;left=0;bottom=0;right=0;pointerEvents=1;fontSize=16;fontColor=#333333;fontStyle=1" vertex="1" parent="s7vytsFGn_9YH380_VkC-118">
          <mxGeometry x="482" width="68" height="60" as="geometry">
            <mxRectangle width="68" height="60" as="alternateBounds" />
          </mxGeometry>
        </mxCell>
        <mxCell id="s7vytsFGn_9YH380_VkC-125" value="6" style="shape=partialRectangle;html=1;whiteSpace=wrap;connectable=0;strokeColor=#666666;overflow=hidden;fillColor=#f5f5f5;top=0;left=0;bottom=0;right=0;pointerEvents=1;fontSize=16;fontColor=#333333;fontStyle=1" vertex="1" parent="s7vytsFGn_9YH380_VkC-118">
          <mxGeometry x="550" width="69" height="60" as="geometry">
            <mxRectangle width="69" height="60" as="alternateBounds" />
          </mxGeometry>
        </mxCell>
        <mxCell id="s7vytsFGn_9YH380_VkC-126" value="" style="shape=tableRow;horizontal=0;startSize=0;swimlaneHead=0;swimlaneBody=0;strokeColor=inherit;top=0;left=0;bottom=0;right=0;collapsible=0;dropTarget=0;fillColor=none;points=[[0,0.5],[1,0.5]];portConstraint=eastwest;fontSize=16;" vertex="1" parent="s7vytsFGn_9YH380_VkC-117">
          <mxGeometry y="60" width="619" height="60" as="geometry" />
        </mxCell>
        <mxCell id="s7vytsFGn_9YH380_VkC-147" value="GEP Notation Encoding" style="shape=partialRectangle;html=1;whiteSpace=wrap;connectable=0;strokeColor=#666666;overflow=hidden;fillColor=#f5f5f5;top=0;left=0;bottom=0;right=0;pointerEvents=1;fontSize=16;rowspan=1;colspan=2;fontColor=#333333;fontStyle=1" vertex="1" parent="s7vytsFGn_9YH380_VkC-126">
          <mxGeometry width="138" height="60" as="geometry">
            <mxRectangle width="69" height="60" as="alternateBounds" />
          </mxGeometry>
        </mxCell>
        <mxCell id="s7vytsFGn_9YH380_VkC-143" value="" style="shape=partialRectangle;html=1;whiteSpace=wrap;connectable=0;strokeColor=inherit;overflow=hidden;fillColor=none;top=0;left=0;bottom=0;right=0;pointerEvents=1;fontSize=16;" vertex="1" visible="0" parent="s7vytsFGn_9YH380_VkC-126">
          <mxGeometry x="69" width="69" height="60" as="geometry">
            <mxRectangle width="69" height="60" as="alternateBounds" />
          </mxGeometry>
        </mxCell>
        <mxCell id="s7vytsFGn_9YH380_VkC-127" value="D" style="shape=partialRectangle;html=1;whiteSpace=wrap;connectable=0;strokeColor=#9673a6;overflow=hidden;fillColor=#e1d5e7;top=0;left=0;bottom=0;right=0;pointerEvents=1;fontSize=16;" vertex="1" parent="s7vytsFGn_9YH380_VkC-126">
          <mxGeometry x="138" width="69" height="60" as="geometry">
            <mxRectangle width="69" height="60" as="alternateBounds" />
          </mxGeometry>
        </mxCell>
        <mxCell id="s7vytsFGn_9YH380_VkC-128" value="Q" style="shape=partialRectangle;html=1;whiteSpace=wrap;connectable=0;strokeColor=#6c8ebf;overflow=hidden;fillColor=#dae8fc;top=0;left=0;bottom=0;right=0;pointerEvents=1;fontSize=16;" vertex="1" parent="s7vytsFGn_9YH380_VkC-126">
          <mxGeometry x="207" width="68" height="60" as="geometry">
            <mxRectangle width="68" height="60" as="alternateBounds" />
          </mxGeometry>
        </mxCell>
        <mxCell id="s7vytsFGn_9YH380_VkC-129" value="T" style="shape=partialRectangle;html=1;whiteSpace=wrap;connectable=0;strokeColor=#82b366;overflow=hidden;fillColor=#d5e8d4;top=0;left=0;bottom=0;right=0;pointerEvents=1;fontSize=16;" vertex="1" parent="s7vytsFGn_9YH380_VkC-126">
          <mxGeometry x="275" width="69" height="60" as="geometry">
            <mxRectangle width="69" height="60" as="alternateBounds" />
          </mxGeometry>
        </mxCell>
        <mxCell id="s7vytsFGn_9YH380_VkC-130" value="a" style="shape=partialRectangle;html=1;whiteSpace=wrap;connectable=0;strokeColor=#6c8ebf;overflow=hidden;fillColor=#dae8fc;top=0;left=0;bottom=0;right=0;pointerEvents=1;fontSize=16;" vertex="1" parent="s7vytsFGn_9YH380_VkC-126">
          <mxGeometry x="344" width="69" height="60" as="geometry">
            <mxRectangle width="69" height="60" as="alternateBounds" />
          </mxGeometry>
        </mxCell>
        <mxCell id="s7vytsFGn_9YH380_VkC-131" value="b" style="shape=partialRectangle;html=1;whiteSpace=wrap;connectable=0;strokeColor=#6c8ebf;overflow=hidden;fillColor=#dae8fc;top=0;left=0;bottom=0;right=0;pointerEvents=1;fontSize=16;" vertex="1" parent="s7vytsFGn_9YH380_VkC-126">
          <mxGeometry x="413" width="69" height="60" as="geometry">
            <mxRectangle width="69" height="60" as="alternateBounds" />
          </mxGeometry>
        </mxCell>
        <mxCell id="s7vytsFGn_9YH380_VkC-132" value="c" style="shape=partialRectangle;html=1;whiteSpace=wrap;connectable=0;strokeColor=#82b366;overflow=hidden;fillColor=#d5e8d4;top=0;left=0;bottom=0;right=0;pointerEvents=1;fontSize=16;" vertex="1" parent="s7vytsFGn_9YH380_VkC-126">
          <mxGeometry x="482" width="68" height="60" as="geometry">
            <mxRectangle width="68" height="60" as="alternateBounds" />
          </mxGeometry>
        </mxCell>
        <mxCell id="s7vytsFGn_9YH380_VkC-133" value="d" style="shape=partialRectangle;html=1;whiteSpace=wrap;connectable=0;strokeColor=#82b366;overflow=hidden;fillColor=#d5e8d4;top=0;left=0;bottom=0;right=0;pointerEvents=1;fontSize=16;" vertex="1" parent="s7vytsFGn_9YH380_VkC-126">
          <mxGeometry x="550" width="69" height="60" as="geometry">
            <mxRectangle width="69" height="60" as="alternateBounds" />
          </mxGeometry>
        </mxCell>
        <mxCell id="s7vytsFGn_9YH380_VkC-134" value="" style="shape=tableRow;horizontal=0;startSize=0;swimlaneHead=0;swimlaneBody=0;strokeColor=inherit;top=0;left=0;bottom=0;right=0;collapsible=0;dropTarget=0;fillColor=none;points=[[0,0.5],[1,0.5]];portConstraint=eastwest;fontSize=16;" vertex="1" parent="s7vytsFGn_9YH380_VkC-117">
          <mxGeometry y="120" width="619" height="60" as="geometry" />
        </mxCell>
        <mxCell id="s7vytsFGn_9YH380_VkC-148" value="&lt;b&gt;Prefix GEP Notation Encoding&lt;/b&gt;" style="shape=partialRectangle;html=1;whiteSpace=wrap;connectable=0;strokeColor=#666666;overflow=hidden;fillColor=#f5f5f5;top=0;left=0;bottom=0;right=0;pointerEvents=1;fontSize=16;rowspan=1;colspan=2;fontColor=#333333;" vertex="1" parent="s7vytsFGn_9YH380_VkC-134">
          <mxGeometry width="138" height="60" as="geometry">
            <mxRectangle width="69" height="60" as="alternateBounds" />
          </mxGeometry>
        </mxCell>
        <mxCell id="s7vytsFGn_9YH380_VkC-144" value="" style="shape=partialRectangle;html=1;whiteSpace=wrap;connectable=0;strokeColor=inherit;overflow=hidden;fillColor=none;top=0;left=0;bottom=0;right=0;pointerEvents=1;fontSize=16;" vertex="1" visible="0" parent="s7vytsFGn_9YH380_VkC-134">
          <mxGeometry x="69" width="69" height="60" as="geometry">
            <mxRectangle width="69" height="60" as="alternateBounds" />
          </mxGeometry>
        </mxCell>
        <mxCell id="s7vytsFGn_9YH380_VkC-135" value="D" style="shape=partialRectangle;html=1;whiteSpace=wrap;connectable=0;strokeColor=#9673a6;overflow=hidden;fillColor=#e1d5e7;top=0;left=0;bottom=0;right=0;pointerEvents=1;fontSize=16;" vertex="1" parent="s7vytsFGn_9YH380_VkC-134">
          <mxGeometry x="138" width="69" height="60" as="geometry">
            <mxRectangle width="69" height="60" as="alternateBounds" />
          </mxGeometry>
        </mxCell>
        <mxCell id="s7vytsFGn_9YH380_VkC-136" value="Q" style="shape=partialRectangle;html=1;whiteSpace=wrap;connectable=0;strokeColor=#6c8ebf;overflow=hidden;fillColor=#dae8fc;top=0;left=0;bottom=0;right=0;pointerEvents=1;fontSize=16;" vertex="1" parent="s7vytsFGn_9YH380_VkC-134">
          <mxGeometry x="207" width="68" height="60" as="geometry">
            <mxRectangle width="68" height="60" as="alternateBounds" />
          </mxGeometry>
        </mxCell>
        <mxCell id="s7vytsFGn_9YH380_VkC-137" value="a" style="shape=partialRectangle;html=1;whiteSpace=wrap;connectable=0;strokeColor=#6c8ebf;overflow=hidden;fillColor=#dae8fc;top=0;left=0;bottom=0;right=0;pointerEvents=1;fontSize=16;" vertex="1" parent="s7vytsFGn_9YH380_VkC-134">
          <mxGeometry x="275" width="69" height="60" as="geometry">
            <mxRectangle width="69" height="60" as="alternateBounds" />
          </mxGeometry>
        </mxCell>
        <mxCell id="s7vytsFGn_9YH380_VkC-138" value="b" style="shape=partialRectangle;html=1;whiteSpace=wrap;connectable=0;strokeColor=#6c8ebf;overflow=hidden;fillColor=#dae8fc;top=0;left=0;bottom=0;right=0;pointerEvents=1;fontSize=16;" vertex="1" parent="s7vytsFGn_9YH380_VkC-134">
          <mxGeometry x="344" width="69" height="60" as="geometry">
            <mxRectangle width="69" height="60" as="alternateBounds" />
          </mxGeometry>
        </mxCell>
        <mxCell id="s7vytsFGn_9YH380_VkC-139" value="T" style="shape=partialRectangle;html=1;whiteSpace=wrap;connectable=0;strokeColor=#82b366;overflow=hidden;fillColor=#d5e8d4;top=0;left=0;bottom=0;right=0;pointerEvents=1;fontSize=16;" vertex="1" parent="s7vytsFGn_9YH380_VkC-134">
          <mxGeometry x="413" width="69" height="60" as="geometry">
            <mxRectangle width="69" height="60" as="alternateBounds" />
          </mxGeometry>
        </mxCell>
        <mxCell id="s7vytsFGn_9YH380_VkC-140" value="c" style="shape=partialRectangle;html=1;whiteSpace=wrap;connectable=0;strokeColor=#82b366;overflow=hidden;fillColor=#d5e8d4;top=0;left=0;bottom=0;right=0;pointerEvents=1;fontSize=16;" vertex="1" parent="s7vytsFGn_9YH380_VkC-134">
          <mxGeometry x="482" width="68" height="60" as="geometry">
            <mxRectangle width="68" height="60" as="alternateBounds" />
          </mxGeometry>
        </mxCell>
        <mxCell id="s7vytsFGn_9YH380_VkC-141" value="d" style="shape=partialRectangle;html=1;whiteSpace=wrap;connectable=0;strokeColor=#82b366;overflow=hidden;fillColor=#d5e8d4;top=0;left=0;bottom=0;right=0;pointerEvents=1;fontSize=16;" vertex="1" parent="s7vytsFGn_9YH380_VkC-134">
          <mxGeometry x="550" width="69" height="60" as="geometry">
            <mxRectangle width="69" height="60" as="alternateBounds" />
          </mxGeometry>
        </mxCell>
      </root>
    </mxGraphModel>
  </diagram>
</mxfile>
